<mxfile host="app.diagrams.net" agent="Mozilla/5.0 (Windows NT 10.0; Win64; x64) AppleWebKit/537.36 (KHTML, like Gecko) Chrome/120.0.0.0 Safari/537.36" version="25.0.3">
  <diagram id="C5RBs43oDa-KdzZeNtuy" name="Page-1">
    <mxGraphModel dx="1687" dy="918" grid="1" gridSize="10" guides="1" tooltips="1" connect="1" arrows="1" fold="1" page="1" pageScale="1" pageWidth="827" pageHeight="1169" math="0" shadow="0">
      <root>
        <mxCell id="WIyWlLk6GJQsqaUBKTNV-0" />
        <mxCell id="WIyWlLk6GJQsqaUBKTNV-1" parent="WIyWlLk6GJQsqaUBKTNV-0" />
        <mxCell id="zkfFHV4jXpPFQw0GAbJ--0" value="&lt;&lt;ACharacter&gt;&gt;&#xa;AMyCharacter" style="swimlane;fontStyle=2;align=center;verticalAlign=top;childLayout=stackLayout;horizontal=1;startSize=40;horizontalStack=0;resizeParent=1;resizeLast=0;collapsible=1;marginBottom=0;rounded=0;shadow=0;strokeWidth=1;" parent="WIyWlLk6GJQsqaUBKTNV-1" vertex="1">
          <mxGeometry x="20" y="40" width="280" height="600" as="geometry">
            <mxRectangle x="230" y="140" width="160" height="26" as="alternateBounds" />
          </mxGeometry>
        </mxCell>
        <mxCell id="23qsIZbxwXjmDLCnPmqu-11" value="# InventoryQuickSlotWidgetClass : TSubclassOf&amp;lt;class UInventoryQuickSlotWidget&amp;gt;" style="text;strokeColor=none;fillColor=none;align=left;verticalAlign=middle;spacingLeft=4;spacingRight=4;overflow=hidden;points=[[0,0.5],[1,0.5]];portConstraint=eastwest;rotatable=0;whiteSpace=wrap;html=1;" parent="zkfFHV4jXpPFQw0GAbJ--0" vertex="1">
          <mxGeometry y="40" width="280" height="30" as="geometry" />
        </mxCell>
        <mxCell id="23qsIZbxwXjmDLCnPmqu-12" value="# InventoryQuickSlotWidgetInstance : class UInventoryQuickSlotWidget*" style="text;strokeColor=none;fillColor=none;align=left;verticalAlign=middle;spacingLeft=4;spacingRight=4;overflow=hidden;points=[[0,0.5],[1,0.5]];portConstraint=eastwest;rotatable=0;whiteSpace=wrap;html=1;" parent="zkfFHV4jXpPFQw0GAbJ--0" vertex="1">
          <mxGeometry y="70" width="280" height="30" as="geometry" />
        </mxCell>
        <mxCell id="23qsIZbxwXjmDLCnPmqu-13" value="- InventoryComponent : UInventoryComponent*" style="text;strokeColor=none;fillColor=none;align=left;verticalAlign=middle;spacingLeft=4;spacingRight=4;overflow=hidden;points=[[0,0.5],[1,0.5]];portConstraint=eastwest;rotatable=0;whiteSpace=wrap;html=1;" parent="zkfFHV4jXpPFQw0GAbJ--0" vertex="1">
          <mxGeometry y="100" width="280" height="30" as="geometry" />
        </mxCell>
        <mxCell id="23qsIZbxwXjmDLCnPmqu-14" value="- RootItemBoxComponent : class UBoxComponent*" style="text;strokeColor=none;fillColor=none;align=left;verticalAlign=middle;spacingLeft=4;spacingRight=4;overflow=hidden;points=[[0,0.5],[1,0.5]];portConstraint=eastwest;rotatable=0;whiteSpace=wrap;html=1;" parent="zkfFHV4jXpPFQw0GAbJ--0" vertex="1">
          <mxGeometry y="130" width="280" height="30" as="geometry" />
        </mxCell>
        <mxCell id="23qsIZbxwXjmDLCnPmqu-15" value="- OverlapItems : TArray&amp;lt;class ADropItem*&amp;gt;" style="text;strokeColor=none;fillColor=none;align=left;verticalAlign=middle;spacingLeft=4;spacingRight=4;overflow=hidden;points=[[0,0.5],[1,0.5]];portConstraint=eastwest;rotatable=0;whiteSpace=wrap;html=1;" parent="zkfFHV4jXpPFQw0GAbJ--0" vertex="1">
          <mxGeometry y="160" width="280" height="30" as="geometry" />
        </mxCell>
        <mxCell id="23qsIZbxwXjmDLCnPmqu-16" value="- QuickSlotItem : class AItemBase*" style="text;strokeColor=none;fillColor=none;align=left;verticalAlign=middle;spacingLeft=4;spacingRight=4;overflow=hidden;points=[[0,0.5],[1,0.5]];portConstraint=eastwest;rotatable=0;whiteSpace=wrap;html=1;" parent="zkfFHV4jXpPFQw0GAbJ--0" vertex="1">
          <mxGeometry y="190" width="280" height="30" as="geometry" />
        </mxCell>
        <mxCell id="23qsIZbxwXjmDLCnPmqu-17" value="- QuickSlotItemAmount : int32" style="text;strokeColor=none;fillColor=none;align=left;verticalAlign=middle;spacingLeft=4;spacingRight=4;overflow=hidden;points=[[0,0.5],[1,0.5]];portConstraint=eastwest;rotatable=0;whiteSpace=wrap;html=1;" parent="zkfFHV4jXpPFQw0GAbJ--0" vertex="1">
          <mxGeometry y="220" width="280" height="30" as="geometry" />
        </mxCell>
        <mxCell id="23qsIZbxwXjmDLCnPmqu-18" value="- QuickSlotItemID : int32" style="text;strokeColor=none;fillColor=none;align=left;verticalAlign=middle;spacingLeft=4;spacingRight=4;overflow=hidden;points=[[0,0.5],[1,0.5]];portConstraint=eastwest;rotatable=0;whiteSpace=wrap;html=1;" parent="zkfFHV4jXpPFQw0GAbJ--0" vertex="1">
          <mxGeometry y="250" width="280" height="30" as="geometry" />
        </mxCell>
        <mxCell id="zkfFHV4jXpPFQw0GAbJ--4" value="" style="line;html=1;strokeWidth=1;align=left;verticalAlign=middle;spacingTop=-1;spacingLeft=3;spacingRight=3;rotatable=0;labelPosition=right;points=[];portConstraint=eastwest;" parent="zkfFHV4jXpPFQw0GAbJ--0" vertex="1">
          <mxGeometry y="280" width="280" height="8" as="geometry" />
        </mxCell>
        <mxCell id="23qsIZbxwXjmDLCnPmqu-10" value="+ RootItem() : void" style="text;strokeColor=none;fillColor=none;align=left;verticalAlign=middle;spacingLeft=4;spacingRight=4;overflow=hidden;points=[[0,0.5],[1,0.5]];portConstraint=eastwest;rotatable=0;whiteSpace=wrap;html=1;" parent="zkfFHV4jXpPFQw0GAbJ--0" vertex="1">
          <mxGeometry y="288" width="280" height="30" as="geometry" />
        </mxCell>
        <mxCell id="zkfFHV4jXpPFQw0GAbJ--5" value="+ OpenInventory() : void" style="text;align=left;verticalAlign=top;spacingLeft=4;spacingRight=4;overflow=hidden;rotatable=0;points=[[0,0.5],[1,0.5]];portConstraint=eastwest;" parent="zkfFHV4jXpPFQw0GAbJ--0" vertex="1">
          <mxGeometry y="318" width="280" height="26" as="geometry" />
        </mxCell>
        <mxCell id="23qsIZbxwXjmDLCnPmqu-2" value="+ GetInventory() :&amp;nbsp;UInventoryComponent*" style="text;strokeColor=none;fillColor=none;align=left;verticalAlign=middle;spacingLeft=4;spacingRight=4;overflow=hidden;points=[[0,0.5],[1,0.5]];portConstraint=eastwest;rotatable=0;whiteSpace=wrap;html=1;" parent="zkfFHV4jXpPFQw0GAbJ--0" vertex="1">
          <mxGeometry y="344" width="280" height="30" as="geometry" />
        </mxCell>
        <mxCell id="23qsIZbxwXjmDLCnPmqu-131" value="+ OnRootItemBoxOverlapBegin(OverlappedComponent : UPrimitiveComponent*, OtherActor :&amp;nbsp;AActor*&amp;nbsp;, OtherComponent : UPrimitiveComponent*, OtherBodyIndex :&amp;nbsp;&amp;nbsp;int32&amp;nbsp;, bFromSweep :&amp;nbsp;bool&amp;nbsp;, SweepResult :const FHitResult&amp;amp;) : void" style="text;strokeColor=none;fillColor=none;align=left;verticalAlign=middle;spacingLeft=4;spacingRight=4;overflow=hidden;points=[[0,0.5],[1,0.5]];portConstraint=eastwest;rotatable=0;whiteSpace=wrap;html=1;" parent="zkfFHV4jXpPFQw0GAbJ--0" vertex="1">
          <mxGeometry y="374" width="280" height="86" as="geometry" />
        </mxCell>
        <mxCell id="23qsIZbxwXjmDLCnPmqu-132" value="+&amp;nbsp; OnRootItemBoxOverlapEnd( OverlappedComponent : UPrimitiveComponent*, OtherActor : AActor*, OtherComponent :&amp;nbsp;UPrimitiveComponent*, OtherBodyIndex :&amp;nbsp;int32) : void" style="text;strokeColor=none;fillColor=none;align=left;verticalAlign=middle;spacingLeft=4;spacingRight=4;overflow=hidden;points=[[0,0.5],[1,0.5]];portConstraint=eastwest;rotatable=0;whiteSpace=wrap;html=1;" parent="zkfFHV4jXpPFQw0GAbJ--0" vertex="1">
          <mxGeometry y="460" width="280" height="80" as="geometry" />
        </mxCell>
        <mxCell id="23qsIZbxwXjmDLCnPmqu-19" value="+ QuickSlot() : void" style="text;strokeColor=none;fillColor=none;align=left;verticalAlign=middle;spacingLeft=4;spacingRight=4;overflow=hidden;points=[[0,0.5],[1,0.5]];portConstraint=eastwest;rotatable=0;whiteSpace=wrap;html=1;" parent="zkfFHV4jXpPFQw0GAbJ--0" vertex="1">
          <mxGeometry y="540" width="280" height="30" as="geometry" />
        </mxCell>
        <mxCell id="23qsIZbxwXjmDLCnPmqu-133" value="+ GetInventoryQuickSlotWidgetInstance() : class UInventoryQuickSlotWidget*" style="text;strokeColor=none;fillColor=none;align=left;verticalAlign=middle;spacingLeft=4;spacingRight=4;overflow=hidden;points=[[0,0.5],[1,0.5]];portConstraint=eastwest;rotatable=0;whiteSpace=wrap;html=1;" parent="zkfFHV4jXpPFQw0GAbJ--0" vertex="1">
          <mxGeometry y="570" width="280" height="30" as="geometry" />
        </mxCell>
        <mxCell id="zkfFHV4jXpPFQw0GAbJ--17" value="&lt;&lt;UActorComponent&gt;&gt;&#xa;UInventoryComponent" style="swimlane;fontStyle=0;align=center;verticalAlign=top;childLayout=stackLayout;horizontal=1;startSize=40;horizontalStack=0;resizeParent=1;resizeLast=0;collapsible=1;marginBottom=0;rounded=0;shadow=0;strokeWidth=1;" parent="WIyWlLk6GJQsqaUBKTNV-1" vertex="1">
          <mxGeometry x="400" y="40" width="350" height="640" as="geometry">
            <mxRectangle x="550" y="140" width="160" height="26" as="alternateBounds" />
          </mxGeometry>
        </mxCell>
        <mxCell id="zkfFHV4jXpPFQw0GAbJ--18" value="+ MaxSlotCounter : int32" style="text;align=left;verticalAlign=top;spacingLeft=4;spacingRight=4;overflow=hidden;rotatable=0;points=[[0,0.5],[1,0.5]];portConstraint=eastwest;" parent="zkfFHV4jXpPFQw0GAbJ--17" vertex="1">
          <mxGeometry y="40" width="350" height="26" as="geometry" />
        </mxCell>
        <mxCell id="zkfFHV4jXpPFQw0GAbJ--19" value="+ CurrentSlotCounter : int32" style="text;align=left;verticalAlign=top;spacingLeft=4;spacingRight=4;overflow=hidden;rotatable=0;points=[[0,0.5],[1,0.5]];portConstraint=eastwest;rounded=0;shadow=0;html=0;" parent="zkfFHV4jXpPFQw0GAbJ--17" vertex="1">
          <mxGeometry y="66" width="350" height="26" as="geometry" />
        </mxCell>
        <mxCell id="zkfFHV4jXpPFQw0GAbJ--20" value="+ UIDCounter : int32" style="text;align=left;verticalAlign=top;spacingLeft=4;spacingRight=4;overflow=hidden;rotatable=0;points=[[0,0.5],[1,0.5]];portConstraint=eastwest;rounded=0;shadow=0;html=0;" parent="zkfFHV4jXpPFQw0GAbJ--17" vertex="1">
          <mxGeometry y="92" width="350" height="26" as="geometry" />
        </mxCell>
        <mxCell id="zkfFHV4jXpPFQw0GAbJ--21" value="+ bIsOpen : bool" style="text;align=left;verticalAlign=top;spacingLeft=4;spacingRight=4;overflow=hidden;rotatable=0;points=[[0,0.5],[1,0.5]];portConstraint=eastwest;rounded=0;shadow=0;html=0;" parent="zkfFHV4jXpPFQw0GAbJ--17" vertex="1">
          <mxGeometry y="118" width="350" height="26" as="geometry" />
        </mxCell>
        <mxCell id="zkfFHV4jXpPFQw0GAbJ--22" value="+ InventoryWidgetClass : TSubclassOf&lt;class UInventoryWidget&gt;" style="text;align=left;verticalAlign=top;spacingLeft=4;spacingRight=4;overflow=hidden;rotatable=0;points=[[0,0.5],[1,0.5]];portConstraint=eastwest;rounded=0;shadow=0;html=0;" parent="zkfFHV4jXpPFQw0GAbJ--17" vertex="1">
          <mxGeometry y="144" width="350" height="26" as="geometry" />
        </mxCell>
        <mxCell id="23qsIZbxwXjmDLCnPmqu-6" value="+ InventoryWidget : class UInventoryWidget*" style="text;strokeColor=none;fillColor=none;align=left;verticalAlign=middle;spacingLeft=4;spacingRight=4;overflow=hidden;points=[[0,0.5],[1,0.5]];portConstraint=eastwest;rotatable=0;whiteSpace=wrap;html=1;" parent="zkfFHV4jXpPFQw0GAbJ--17" vertex="1">
          <mxGeometry y="170" width="350" height="30" as="geometry" />
        </mxCell>
        <mxCell id="23qsIZbxwXjmDLCnPmqu-8" value="+ InventoryItems : TArray&amp;lt;FInventoryItemData&amp;gt;" style="text;strokeColor=none;fillColor=none;align=left;verticalAlign=middle;spacingLeft=4;spacingRight=4;overflow=hidden;points=[[0,0.5],[1,0.5]];portConstraint=eastwest;rotatable=0;whiteSpace=wrap;html=1;" parent="zkfFHV4jXpPFQw0GAbJ--17" vertex="1">
          <mxGeometry y="200" width="350" height="30" as="geometry" />
        </mxCell>
        <mxCell id="zkfFHV4jXpPFQw0GAbJ--23" value="" style="line;html=1;strokeWidth=1;align=left;verticalAlign=middle;spacingTop=-1;spacingLeft=3;spacingRight=3;rotatable=0;labelPosition=right;points=[];portConstraint=eastwest;" parent="zkfFHV4jXpPFQw0GAbJ--17" vertex="1">
          <mxGeometry y="230" width="350" height="8" as="geometry" />
        </mxCell>
        <mxCell id="zkfFHV4jXpPFQw0GAbJ--24" value="+ UInventoryComponent() : UInventoryComponent" style="text;align=left;verticalAlign=top;spacingLeft=4;spacingRight=4;overflow=hidden;rotatable=0;points=[[0,0.5],[1,0.5]];portConstraint=eastwest;" parent="zkfFHV4jXpPFQw0GAbJ--17" vertex="1">
          <mxGeometry y="238" width="350" height="26" as="geometry" />
        </mxCell>
        <mxCell id="zkfFHV4jXpPFQw0GAbJ--25" value="#  BeginPlay() override : virtual void" style="text;align=left;verticalAlign=top;spacingLeft=4;spacingRight=4;overflow=hidden;rotatable=0;points=[[0,0.5],[1,0.5]];portConstraint=eastwest;" parent="zkfFHV4jXpPFQw0GAbJ--17" vertex="1">
          <mxGeometry y="264" width="350" height="26" as="geometry" />
        </mxCell>
        <mxCell id="23qsIZbxwXjmDLCnPmqu-9" value="+ TickComponent(DeltaTime : float, TickType : ELevelTick, ThisTickFunction : FActorComponentTickFunction*) : virtual void" style="text;strokeColor=none;fillColor=none;align=left;verticalAlign=middle;spacingLeft=4;spacingRight=4;overflow=hidden;points=[[0,0.5],[1,0.5]];portConstraint=eastwest;rotatable=0;whiteSpace=wrap;html=1;" parent="zkfFHV4jXpPFQw0GAbJ--17" vertex="1">
          <mxGeometry y="290" width="350" height="50" as="geometry" />
        </mxCell>
        <mxCell id="23qsIZbxwXjmDLCnPmqu-30" value="+ TryAddItem(AddedItem : class ADropItem*) :&amp;nbsp;bool&amp;nbsp;" style="text;strokeColor=none;fillColor=none;align=left;verticalAlign=middle;spacingLeft=4;spacingRight=4;overflow=hidden;points=[[0,0.5],[1,0.5]];portConstraint=eastwest;rotatable=0;whiteSpace=wrap;html=1;" parent="zkfFHV4jXpPFQw0GAbJ--17" vertex="1">
          <mxGeometry y="340" width="350" height="30" as="geometry" />
        </mxCell>
        <mxCell id="23qsIZbxwXjmDLCnPmqu-31" value="+ FindSlotIndex(AddedItem : class ADropItem*) : int32" style="text;strokeColor=none;fillColor=none;align=left;verticalAlign=middle;spacingLeft=4;spacingRight=4;overflow=hidden;points=[[0,0.5],[1,0.5]];portConstraint=eastwest;rotatable=0;whiteSpace=wrap;html=1;" parent="zkfFHV4jXpPFQw0GAbJ--17" vertex="1">
          <mxGeometry y="370" width="350" height="30" as="geometry" />
        </mxCell>
        <mxCell id="23qsIZbxwXjmDLCnPmqu-32" value="+ StackItem(AddedItem : class ADropItem*, SlotIndex : int32) : void" style="text;strokeColor=none;fillColor=none;align=left;verticalAlign=middle;spacingLeft=4;spacingRight=4;overflow=hidden;points=[[0,0.5],[1,0.5]];portConstraint=eastwest;rotatable=0;whiteSpace=wrap;html=1;" parent="zkfFHV4jXpPFQw0GAbJ--17" vertex="1">
          <mxGeometry y="400" width="350" height="30" as="geometry" />
        </mxCell>
        <mxCell id="23qsIZbxwXjmDLCnPmqu-33" value="+ AddItem(AddedItem : class ADropItem*) : void" style="text;strokeColor=none;fillColor=none;align=left;verticalAlign=middle;spacingLeft=4;spacingRight=4;overflow=hidden;points=[[0,0.5],[1,0.5]];portConstraint=eastwest;rotatable=0;whiteSpace=wrap;html=1;" parent="zkfFHV4jXpPFQw0GAbJ--17" vertex="1">
          <mxGeometry y="430" width="350" height="30" as="geometry" />
        </mxCell>
        <mxCell id="23qsIZbxwXjmDLCnPmqu-34" value="+ RemoveItem(ItemTableID : int32, Amount : int32) : void" style="text;strokeColor=none;fillColor=none;align=left;verticalAlign=middle;spacingLeft=4;spacingRight=4;overflow=hidden;points=[[0,0.5],[1,0.5]];portConstraint=eastwest;rotatable=0;whiteSpace=wrap;html=1;" parent="zkfFHV4jXpPFQw0GAbJ--17" vertex="1">
          <mxGeometry y="460" width="350" height="30" as="geometry" />
        </mxCell>
        <mxCell id="23qsIZbxwXjmDLCnPmqu-35" value="+ MakeUID() : int32" style="text;strokeColor=none;fillColor=none;align=left;verticalAlign=middle;spacingLeft=4;spacingRight=4;overflow=hidden;points=[[0,0.5],[1,0.5]];portConstraint=eastwest;rotatable=0;whiteSpace=wrap;html=1;" parent="zkfFHV4jXpPFQw0GAbJ--17" vertex="1">
          <mxGeometry y="490" width="350" height="30" as="geometry" />
        </mxCell>
        <mxCell id="23qsIZbxwXjmDLCnPmqu-36" value="+ GetInventoryItemAmount(FindItemID : int32) : int32" style="text;strokeColor=none;fillColor=none;align=left;verticalAlign=middle;spacingLeft=4;spacingRight=4;overflow=hidden;points=[[0,0.5],[1,0.5]];portConstraint=eastwest;rotatable=0;whiteSpace=wrap;html=1;" parent="zkfFHV4jXpPFQw0GAbJ--17" vertex="1">
          <mxGeometry y="520" width="350" height="30" as="geometry" />
        </mxCell>
        <mxCell id="23qsIZbxwXjmDLCnPmqu-37" value="+ CreateInventoryWidget() : void" style="text;strokeColor=none;fillColor=none;align=left;verticalAlign=middle;spacingLeft=4;spacingRight=4;overflow=hidden;points=[[0,0.5],[1,0.5]];portConstraint=eastwest;rotatable=0;whiteSpace=wrap;html=1;" parent="zkfFHV4jXpPFQw0GAbJ--17" vertex="1">
          <mxGeometry y="550" width="350" height="30" as="geometry" />
        </mxCell>
        <mxCell id="23qsIZbxwXjmDLCnPmqu-38" value="+ OpenInventoryWidget() : void" style="text;strokeColor=none;fillColor=none;align=left;verticalAlign=middle;spacingLeft=4;spacingRight=4;overflow=hidden;points=[[0,0.5],[1,0.5]];portConstraint=eastwest;rotatable=0;whiteSpace=wrap;html=1;" parent="zkfFHV4jXpPFQw0GAbJ--17" vertex="1">
          <mxGeometry y="580" width="350" height="30" as="geometry" />
        </mxCell>
        <mxCell id="23qsIZbxwXjmDLCnPmqu-39" value="+ CloseInventoryWidget() : void" style="text;strokeColor=none;fillColor=none;align=left;verticalAlign=middle;spacingLeft=4;spacingRight=4;overflow=hidden;points=[[0,0.5],[1,0.5]];portConstraint=eastwest;rotatable=0;whiteSpace=wrap;html=1;" parent="zkfFHV4jXpPFQw0GAbJ--17" vertex="1">
          <mxGeometry y="610" width="350" height="30" as="geometry" />
        </mxCell>
        <mxCell id="23qsIZbxwXjmDLCnPmqu-26" value="&lt;div&gt;&lt;span style=&quot;font-weight: 400;&quot;&gt;&amp;lt;&amp;lt;&lt;/span&gt;&lt;span style=&quot;background-color: initial; font-weight: 400;&quot;&gt;UUserWidget&amp;gt;&amp;gt;&lt;/span&gt;&lt;/div&gt;&lt;span style=&quot;font-weight: 400;&quot;&gt;UInventoryWidget&lt;/span&gt;" style="swimlane;fontStyle=1;align=center;verticalAlign=top;childLayout=stackLayout;horizontal=1;startSize=40;horizontalStack=0;resizeParent=1;resizeParentMax=0;resizeLast=0;collapsible=1;marginBottom=0;whiteSpace=wrap;html=1;" parent="WIyWlLk6GJQsqaUBKTNV-1" vertex="1">
          <mxGeometry x="875" y="40" width="350" height="260" as="geometry" />
        </mxCell>
        <mxCell id="23qsIZbxwXjmDLCnPmqu-21" value="+ InventoryName : class UTextBlock*" style="text;strokeColor=none;fillColor=none;align=left;verticalAlign=middle;spacingLeft=4;spacingRight=4;overflow=hidden;points=[[0,0.5],[1,0.5]];portConstraint=eastwest;rotatable=0;whiteSpace=wrap;html=1;" parent="23qsIZbxwXjmDLCnPmqu-26" vertex="1">
          <mxGeometry y="40" width="350" height="30" as="geometry" />
        </mxCell>
        <mxCell id="23qsIZbxwXjmDLCnPmqu-22" value="+ InventorySlots : class UUniformGridPanel*&amp;nbsp;" style="text;strokeColor=none;fillColor=none;align=left;verticalAlign=middle;spacingLeft=4;spacingRight=4;overflow=hidden;points=[[0,0.5],[1,0.5]];portConstraint=eastwest;rotatable=0;whiteSpace=wrap;html=1;" parent="23qsIZbxwXjmDLCnPmqu-26" vertex="1">
          <mxGeometry y="70" width="350" height="30" as="geometry" />
        </mxCell>
        <mxCell id="23qsIZbxwXjmDLCnPmqu-23" value="+ InventorySlotWidgetClass : TSubclassOf&amp;lt;class UInventorySlotWidget&amp;gt;&amp;nbsp;" style="text;strokeColor=none;fillColor=none;align=left;verticalAlign=middle;spacingLeft=4;spacingRight=4;overflow=hidden;points=[[0,0.5],[1,0.5]];portConstraint=eastwest;rotatable=0;whiteSpace=wrap;html=1;" parent="23qsIZbxwXjmDLCnPmqu-26" vertex="1">
          <mxGeometry y="100" width="350" height="30" as="geometry" />
        </mxCell>
        <mxCell id="23qsIZbxwXjmDLCnPmqu-24" value="+ InventorySlotWidgetInstance : class UInventorySlotWidget*&amp;nbsp;" style="text;strokeColor=none;fillColor=none;align=left;verticalAlign=middle;spacingLeft=4;spacingRight=4;overflow=hidden;points=[[0,0.5],[1,0.5]];portConstraint=eastwest;rotatable=0;whiteSpace=wrap;html=1;" parent="23qsIZbxwXjmDLCnPmqu-26" vertex="1">
          <mxGeometry y="130" width="350" height="30" as="geometry" />
        </mxCell>
        <mxCell id="23qsIZbxwXjmDLCnPmqu-28" value="" style="line;strokeWidth=1;fillColor=none;align=left;verticalAlign=middle;spacingTop=-1;spacingLeft=3;spacingRight=3;rotatable=0;labelPosition=right;points=[];portConstraint=eastwest;strokeColor=inherit;" parent="23qsIZbxwXjmDLCnPmqu-26" vertex="1">
          <mxGeometry y="160" width="350" height="8" as="geometry" />
        </mxCell>
        <mxCell id="23qsIZbxwXjmDLCnPmqu-29" value="+ NativeConstruct() override : virtual void" style="text;strokeColor=none;fillColor=none;align=left;verticalAlign=top;spacingLeft=4;spacingRight=4;overflow=hidden;rotatable=0;points=[[0,0.5],[1,0.5]];portConstraint=eastwest;whiteSpace=wrap;html=1;" parent="23qsIZbxwXjmDLCnPmqu-26" vertex="1">
          <mxGeometry y="168" width="350" height="26" as="geometry" />
        </mxCell>
        <mxCell id="23qsIZbxwXjmDLCnPmqu-40" value="+ CreateInventoryWidget(InventoryComponent : class UInventoryComponent*) : void" style="text;strokeColor=none;fillColor=none;align=left;verticalAlign=middle;spacingLeft=4;spacingRight=4;overflow=hidden;points=[[0,0.5],[1,0.5]];portConstraint=eastwest;rotatable=0;whiteSpace=wrap;html=1;" parent="23qsIZbxwXjmDLCnPmqu-26" vertex="1">
          <mxGeometry y="194" width="350" height="30" as="geometry" />
        </mxCell>
        <mxCell id="23qsIZbxwXjmDLCnPmqu-41" value="+ UpdateInventoryWidget(InventoryComponent : class UInventoryComponent*) : void" style="text;strokeColor=none;fillColor=none;align=left;verticalAlign=middle;spacingLeft=4;spacingRight=4;overflow=hidden;points=[[0,0.5],[1,0.5]];portConstraint=eastwest;rotatable=0;whiteSpace=wrap;html=1;" parent="23qsIZbxwXjmDLCnPmqu-26" vertex="1">
          <mxGeometry y="224" width="350" height="36" as="geometry" />
        </mxCell>
        <mxCell id="23qsIZbxwXjmDLCnPmqu-49" value="&lt;div&gt;&lt;span style=&quot;font-weight: 400;&quot;&gt;&amp;lt;&amp;lt;&lt;/span&gt;&lt;span style=&quot;background-color: initial; font-weight: 400;&quot;&gt;UUserWidget&amp;gt;&amp;gt;&lt;/span&gt;&lt;/div&gt;&lt;span style=&quot;font-weight: 400;&quot;&gt;UInventorySlotWidget&lt;/span&gt;" style="swimlane;fontStyle=1;align=center;verticalAlign=top;childLayout=stackLayout;horizontal=1;startSize=40;horizontalStack=0;resizeParent=1;resizeParentMax=0;resizeLast=0;collapsible=1;marginBottom=0;whiteSpace=wrap;html=1;" parent="WIyWlLk6GJQsqaUBKTNV-1" vertex="1">
          <mxGeometry x="1304" y="40" width="350" height="494" as="geometry" />
        </mxCell>
        <mxCell id="23qsIZbxwXjmDLCnPmqu-50" value="+ Thumbnail : class UButton*" style="text;strokeColor=none;fillColor=none;align=left;verticalAlign=middle;spacingLeft=4;spacingRight=4;overflow=hidden;points=[[0,0.5],[1,0.5]];portConstraint=eastwest;rotatable=0;whiteSpace=wrap;html=1;" parent="23qsIZbxwXjmDLCnPmqu-49" vertex="1">
          <mxGeometry y="40" width="350" height="30" as="geometry" />
        </mxCell>
        <mxCell id="23qsIZbxwXjmDLCnPmqu-51" value="+ AmountText :class UTextBlock*" style="text;strokeColor=none;fillColor=none;align=left;verticalAlign=middle;spacingLeft=4;spacingRight=4;overflow=hidden;points=[[0,0.5],[1,0.5]];portConstraint=eastwest;rotatable=0;whiteSpace=wrap;html=1;" parent="23qsIZbxwXjmDLCnPmqu-49" vertex="1">
          <mxGeometry y="70" width="350" height="30" as="geometry" />
        </mxCell>
        <mxCell id="23qsIZbxwXjmDLCnPmqu-52" value="+ CurrentInventoryItemData : FInventoryItemData" style="text;strokeColor=none;fillColor=none;align=left;verticalAlign=middle;spacingLeft=4;spacingRight=4;overflow=hidden;points=[[0,0.5],[1,0.5]];portConstraint=eastwest;rotatable=0;whiteSpace=wrap;html=1;" parent="23qsIZbxwXjmDLCnPmqu-49" vertex="1">
          <mxGeometry y="100" width="350" height="30" as="geometry" />
        </mxCell>
        <mxCell id="23qsIZbxwXjmDLCnPmqu-53" value="+ ItemCache : TMap&amp;lt;int32, struct FItemData*&amp;gt;" style="text;strokeColor=none;fillColor=none;align=left;verticalAlign=middle;spacingLeft=4;spacingRight=4;overflow=hidden;points=[[0,0.5],[1,0.5]];portConstraint=eastwest;rotatable=0;whiteSpace=wrap;html=1;" parent="23qsIZbxwXjmDLCnPmqu-49" vertex="1">
          <mxGeometry y="130" width="350" height="30" as="geometry" />
        </mxCell>
        <mxCell id="23qsIZbxwXjmDLCnPmqu-58" value="+ InventoryTooltipClass : TSubclassOf&amp;lt;class UInventoryTooltip&amp;gt;" style="text;strokeColor=none;fillColor=none;align=left;verticalAlign=middle;spacingLeft=4;spacingRight=4;overflow=hidden;points=[[0,0.5],[1,0.5]];portConstraint=eastwest;rotatable=0;whiteSpace=wrap;html=1;" parent="23qsIZbxwXjmDLCnPmqu-49" vertex="1">
          <mxGeometry y="160" width="350" height="30" as="geometry" />
        </mxCell>
        <mxCell id="23qsIZbxwXjmDLCnPmqu-61" value="+ InventoryTooltipInstance : class UInventoryTooltip*" style="text;strokeColor=none;fillColor=none;align=left;verticalAlign=middle;spacingLeft=4;spacingRight=4;overflow=hidden;points=[[0,0.5],[1,0.5]];portConstraint=eastwest;rotatable=0;whiteSpace=wrap;html=1;" parent="23qsIZbxwXjmDLCnPmqu-49" vertex="1">
          <mxGeometry y="190" width="350" height="30" as="geometry" />
        </mxCell>
        <mxCell id="23qsIZbxwXjmDLCnPmqu-62" value="+ InventoryItemActionClass : TSubclassOf&amp;lt;class UInventoryItemAction&amp;gt;" style="text;strokeColor=none;fillColor=none;align=left;verticalAlign=middle;spacingLeft=4;spacingRight=4;overflow=hidden;points=[[0,0.5],[1,0.5]];portConstraint=eastwest;rotatable=0;whiteSpace=wrap;html=1;" parent="23qsIZbxwXjmDLCnPmqu-49" vertex="1">
          <mxGeometry y="220" width="350" height="30" as="geometry" />
        </mxCell>
        <mxCell id="23qsIZbxwXjmDLCnPmqu-63" value="+ InventoryItemActionInstance : class UInventoryItemAction*" style="text;strokeColor=none;fillColor=none;align=left;verticalAlign=middle;spacingLeft=4;spacingRight=4;overflow=hidden;points=[[0,0.5],[1,0.5]];portConstraint=eastwest;rotatable=0;whiteSpace=wrap;html=1;" parent="23qsIZbxwXjmDLCnPmqu-49" vertex="1">
          <mxGeometry y="250" width="350" height="30" as="geometry" />
        </mxCell>
        <mxCell id="23qsIZbxwXjmDLCnPmqu-64" value="+ bIsHover : bool" style="text;strokeColor=none;fillColor=none;align=left;verticalAlign=middle;spacingLeft=4;spacingRight=4;overflow=hidden;points=[[0,0.5],[1,0.5]];portConstraint=eastwest;rotatable=0;whiteSpace=wrap;html=1;" parent="23qsIZbxwXjmDLCnPmqu-49" vertex="1">
          <mxGeometry y="280" width="350" height="30" as="geometry" />
        </mxCell>
        <mxCell id="23qsIZbxwXjmDLCnPmqu-54" value="" style="line;strokeWidth=1;fillColor=none;align=left;verticalAlign=middle;spacingTop=-1;spacingLeft=3;spacingRight=3;rotatable=0;labelPosition=right;points=[];portConstraint=eastwest;strokeColor=inherit;" parent="23qsIZbxwXjmDLCnPmqu-49" vertex="1">
          <mxGeometry y="310" width="350" height="8" as="geometry" />
        </mxCell>
        <mxCell id="23qsIZbxwXjmDLCnPmqu-55" value="+ NativeConstruct() override : virtual void" style="text;strokeColor=none;fillColor=none;align=left;verticalAlign=top;spacingLeft=4;spacingRight=4;overflow=hidden;rotatable=0;points=[[0,0.5],[1,0.5]];portConstraint=eastwest;whiteSpace=wrap;html=1;" parent="23qsIZbxwXjmDLCnPmqu-49" vertex="1">
          <mxGeometry y="318" width="350" height="26" as="geometry" />
        </mxCell>
        <mxCell id="23qsIZbxwXjmDLCnPmqu-56" value="+ OnThumbnailHovered() : void" style="text;strokeColor=none;fillColor=none;align=left;verticalAlign=middle;spacingLeft=4;spacingRight=4;overflow=hidden;points=[[0,0.5],[1,0.5]];portConstraint=eastwest;rotatable=0;whiteSpace=wrap;html=1;" parent="23qsIZbxwXjmDLCnPmqu-49" vertex="1">
          <mxGeometry y="344" width="350" height="30" as="geometry" />
        </mxCell>
        <mxCell id="23qsIZbxwXjmDLCnPmqu-57" value="+ OnThumbnailUnhovered() : void" style="text;strokeColor=none;fillColor=none;align=left;verticalAlign=middle;spacingLeft=4;spacingRight=4;overflow=hidden;points=[[0,0.5],[1,0.5]];portConstraint=eastwest;rotatable=0;whiteSpace=wrap;html=1;" parent="23qsIZbxwXjmDLCnPmqu-49" vertex="1">
          <mxGeometry y="374" width="350" height="30" as="geometry" />
        </mxCell>
        <mxCell id="23qsIZbxwXjmDLCnPmqu-65" value="&lt;div&gt;&lt;span style=&quot;white-space: normal;&quot;&gt;+&amp;nbsp;NativeOnMouseButtonDown(InGeometry :&amp;nbsp;&lt;/span&gt;&lt;span style=&quot;background-color: initial;&quot;&gt;const FGeometry&amp;amp;&lt;/span&gt;&lt;span style=&quot;background-color: initial;&quot;&gt;, InMouseEvent :&amp;nbsp;&lt;/span&gt;&lt;span style=&quot;background-color: initial;&quot;&gt;const FPointerEvent&amp;amp;&lt;/span&gt;&lt;span style=&quot;background-color: initial;&quot;&gt;) override :&amp;nbsp;&lt;/span&gt;&lt;span style=&quot;background-color: initial;&quot;&gt;virtual FReply&lt;/span&gt;&lt;/div&gt;" style="text;strokeColor=none;fillColor=none;align=left;verticalAlign=middle;spacingLeft=4;spacingRight=4;overflow=hidden;points=[[0,0.5],[1,0.5]];portConstraint=eastwest;rotatable=0;whiteSpace=wrap;html=1;" parent="23qsIZbxwXjmDLCnPmqu-49" vertex="1">
          <mxGeometry y="404" width="350" height="30" as="geometry" />
        </mxCell>
        <mxCell id="23qsIZbxwXjmDLCnPmqu-66" value="+ RefreshSlot(InventoryItem : TArray&amp;lt;FInventoryItemData&amp;gt;, SlotIndex : int32) : void" style="text;strokeColor=none;fillColor=none;align=left;verticalAlign=middle;spacingLeft=4;spacingRight=4;overflow=hidden;points=[[0,0.5],[1,0.5]];portConstraint=eastwest;rotatable=0;whiteSpace=wrap;html=1;" parent="23qsIZbxwXjmDLCnPmqu-49" vertex="1">
          <mxGeometry y="434" width="350" height="30" as="geometry" />
        </mxCell>
        <mxCell id="23qsIZbxwXjmDLCnPmqu-67" value="+ ClearSlot() : void" style="text;strokeColor=none;fillColor=none;align=left;verticalAlign=middle;spacingLeft=4;spacingRight=4;overflow=hidden;points=[[0,0.5],[1,0.5]];portConstraint=eastwest;rotatable=0;whiteSpace=wrap;html=1;" parent="23qsIZbxwXjmDLCnPmqu-49" vertex="1">
          <mxGeometry y="464" width="350" height="30" as="geometry" />
        </mxCell>
        <mxCell id="23qsIZbxwXjmDLCnPmqu-68" value="&lt;div&gt;&lt;span style=&quot;font-weight: 400;&quot;&gt;&amp;lt;&amp;lt;&lt;/span&gt;&lt;span style=&quot;background-color: initial; font-weight: 400;&quot;&gt;UUserWidget&amp;gt;&amp;gt;&lt;/span&gt;&lt;/div&gt;&lt;span style=&quot;font-weight: 400;&quot;&gt;UInventoryItemAction&lt;/span&gt;" style="swimlane;fontStyle=1;align=center;verticalAlign=top;childLayout=stackLayout;horizontal=1;startSize=40;horizontalStack=0;resizeParent=1;resizeParentMax=0;resizeLast=0;collapsible=1;marginBottom=0;whiteSpace=wrap;html=1;" parent="WIyWlLk6GJQsqaUBKTNV-1" vertex="1">
          <mxGeometry x="875" y="338" width="350" height="494" as="geometry" />
        </mxCell>
        <mxCell id="23qsIZbxwXjmDLCnPmqu-69" value="+ OnlyUse : class UButton*" style="text;strokeColor=none;fillColor=none;align=left;verticalAlign=middle;spacingLeft=4;spacingRight=4;overflow=hidden;points=[[0,0.5],[1,0.5]];portConstraint=eastwest;rotatable=0;whiteSpace=wrap;html=1;" parent="23qsIZbxwXjmDLCnPmqu-68" vertex="1">
          <mxGeometry y="40" width="350" height="30" as="geometry" />
        </mxCell>
        <mxCell id="23qsIZbxwXjmDLCnPmqu-70" value="+ OnlyUseText : class UTextBlock*" style="text;strokeColor=none;fillColor=none;align=left;verticalAlign=middle;spacingLeft=4;spacingRight=4;overflow=hidden;points=[[0,0.5],[1,0.5]];portConstraint=eastwest;rotatable=0;whiteSpace=wrap;html=1;" parent="23qsIZbxwXjmDLCnPmqu-68" vertex="1">
          <mxGeometry y="70" width="350" height="30" as="geometry" />
        </mxCell>
        <mxCell id="23qsIZbxwXjmDLCnPmqu-71" value="+ OnlyDestroy : class UButton*" style="text;strokeColor=none;fillColor=none;align=left;verticalAlign=middle;spacingLeft=4;spacingRight=4;overflow=hidden;points=[[0,0.5],[1,0.5]];portConstraint=eastwest;rotatable=0;whiteSpace=wrap;html=1;" parent="23qsIZbxwXjmDLCnPmqu-68" vertex="1">
          <mxGeometry y="100" width="350" height="30" as="geometry" />
        </mxCell>
        <mxCell id="23qsIZbxwXjmDLCnPmqu-72" value="+ OnlyDestroyText :&amp;nbsp;class UTextBlock*" style="text;strokeColor=none;fillColor=none;align=left;verticalAlign=middle;spacingLeft=4;spacingRight=4;overflow=hidden;points=[[0,0.5],[1,0.5]];portConstraint=eastwest;rotatable=0;whiteSpace=wrap;html=1;" parent="23qsIZbxwXjmDLCnPmqu-68" vertex="1">
          <mxGeometry y="130" width="350" height="30" as="geometry" />
        </mxCell>
        <mxCell id="23qsIZbxwXjmDLCnPmqu-73" value="+ QuickSlot : class UButton*" style="text;strokeColor=none;fillColor=none;align=left;verticalAlign=middle;spacingLeft=4;spacingRight=4;overflow=hidden;points=[[0,0.5],[1,0.5]];portConstraint=eastwest;rotatable=0;whiteSpace=wrap;html=1;" parent="23qsIZbxwXjmDLCnPmqu-68" vertex="1">
          <mxGeometry y="160" width="350" height="30" as="geometry" />
        </mxCell>
        <mxCell id="23qsIZbxwXjmDLCnPmqu-74" value="+ QuickSlotText : class UTextBlock*" style="text;strokeColor=none;fillColor=none;align=left;verticalAlign=middle;spacingLeft=4;spacingRight=4;overflow=hidden;points=[[0,0.5],[1,0.5]];portConstraint=eastwest;rotatable=0;whiteSpace=wrap;html=1;" parent="23qsIZbxwXjmDLCnPmqu-68" vertex="1">
          <mxGeometry y="190" width="350" height="30" as="geometry" />
        </mxCell>
        <mxCell id="23qsIZbxwXjmDLCnPmqu-75" value="+ InventoryItemData : FInventoryItemData" style="text;strokeColor=none;fillColor=none;align=left;verticalAlign=middle;spacingLeft=4;spacingRight=4;overflow=hidden;points=[[0,0.5],[1,0.5]];portConstraint=eastwest;rotatable=0;whiteSpace=wrap;html=1;" parent="23qsIZbxwXjmDLCnPmqu-68" vertex="1">
          <mxGeometry y="220" width="350" height="30" as="geometry" />
        </mxCell>
        <mxCell id="23qsIZbxwXjmDLCnPmqu-76" value="+ InventoryQuickSlotWidgetClass : TSubclassOf&amp;lt;class UInventoryQuickSlotWidget&amp;gt;" style="text;strokeColor=none;fillColor=none;align=left;verticalAlign=middle;spacingLeft=4;spacingRight=4;overflow=hidden;points=[[0,0.5],[1,0.5]];portConstraint=eastwest;rotatable=0;whiteSpace=wrap;html=1;" parent="23qsIZbxwXjmDLCnPmqu-68" vertex="1">
          <mxGeometry y="250" width="350" height="30" as="geometry" />
        </mxCell>
        <mxCell id="23qsIZbxwXjmDLCnPmqu-77" value="+ InventoryQuickSlotWidgetInstance : class UInventoryQuickSlotWidget*" style="text;strokeColor=none;fillColor=none;align=left;verticalAlign=middle;spacingLeft=4;spacingRight=4;overflow=hidden;points=[[0,0.5],[1,0.5]];portConstraint=eastwest;rotatable=0;whiteSpace=wrap;html=1;" parent="23qsIZbxwXjmDLCnPmqu-68" vertex="1">
          <mxGeometry y="280" width="350" height="30" as="geometry" />
        </mxCell>
        <mxCell id="23qsIZbxwXjmDLCnPmqu-86" value="+ ItemCache : TMap&amp;lt;int32, struct FItemData*&amp;gt;" style="text;strokeColor=none;fillColor=none;align=left;verticalAlign=middle;spacingLeft=4;spacingRight=4;overflow=hidden;points=[[0,0.5],[1,0.5]];portConstraint=eastwest;rotatable=0;whiteSpace=wrap;html=1;" parent="23qsIZbxwXjmDLCnPmqu-68" vertex="1">
          <mxGeometry y="310" width="350" height="30" as="geometry" />
        </mxCell>
        <mxCell id="23qsIZbxwXjmDLCnPmqu-78" value="" style="line;strokeWidth=1;fillColor=none;align=left;verticalAlign=middle;spacingTop=-1;spacingLeft=3;spacingRight=3;rotatable=0;labelPosition=right;points=[];portConstraint=eastwest;strokeColor=inherit;" parent="23qsIZbxwXjmDLCnPmqu-68" vertex="1">
          <mxGeometry y="340" width="350" height="8" as="geometry" />
        </mxCell>
        <mxCell id="23qsIZbxwXjmDLCnPmqu-79" value="+ NativeConstruct() override : virtual void" style="text;strokeColor=none;fillColor=none;align=left;verticalAlign=top;spacingLeft=4;spacingRight=4;overflow=hidden;rotatable=0;points=[[0,0.5],[1,0.5]];portConstraint=eastwest;whiteSpace=wrap;html=1;" parent="23qsIZbxwXjmDLCnPmqu-68" vertex="1">
          <mxGeometry y="348" width="350" height="26" as="geometry" />
        </mxCell>
        <mxCell id="23qsIZbxwXjmDLCnPmqu-80" value="+ SetItemData(InItemData : const FInventoryItemData&amp;amp;) : void" style="text;strokeColor=none;fillColor=none;align=left;verticalAlign=middle;spacingLeft=4;spacingRight=4;overflow=hidden;points=[[0,0.5],[1,0.5]];portConstraint=eastwest;rotatable=0;whiteSpace=wrap;html=1;" parent="23qsIZbxwXjmDLCnPmqu-68" vertex="1">
          <mxGeometry y="374" width="350" height="30" as="geometry" />
        </mxCell>
        <mxCell id="23qsIZbxwXjmDLCnPmqu-81" value="+ OnOnlyUseClicked() : void" style="text;strokeColor=none;fillColor=none;align=left;verticalAlign=middle;spacingLeft=4;spacingRight=4;overflow=hidden;points=[[0,0.5],[1,0.5]];portConstraint=eastwest;rotatable=0;whiteSpace=wrap;html=1;" parent="23qsIZbxwXjmDLCnPmqu-68" vertex="1">
          <mxGeometry y="404" width="350" height="30" as="geometry" />
        </mxCell>
        <mxCell id="23qsIZbxwXjmDLCnPmqu-84" value="+ OnOnlyDestroyClicked() : void" style="text;strokeColor=none;fillColor=none;align=left;verticalAlign=middle;spacingLeft=4;spacingRight=4;overflow=hidden;points=[[0,0.5],[1,0.5]];portConstraint=eastwest;rotatable=0;whiteSpace=wrap;html=1;" parent="23qsIZbxwXjmDLCnPmqu-68" vertex="1">
          <mxGeometry y="434" width="350" height="30" as="geometry" />
        </mxCell>
        <mxCell id="23qsIZbxwXjmDLCnPmqu-85" value="+ OnQuickSlotClicked() : void" style="text;strokeColor=none;fillColor=none;align=left;verticalAlign=middle;spacingLeft=4;spacingRight=4;overflow=hidden;points=[[0,0.5],[1,0.5]];portConstraint=eastwest;rotatable=0;whiteSpace=wrap;html=1;" parent="23qsIZbxwXjmDLCnPmqu-68" vertex="1">
          <mxGeometry y="464" width="350" height="30" as="geometry" />
        </mxCell>
        <mxCell id="23qsIZbxwXjmDLCnPmqu-87" value="&lt;div&gt;&lt;span style=&quot;font-weight: 400;&quot;&gt;&amp;lt;&amp;lt;&lt;/span&gt;&lt;span style=&quot;background-color: initial; font-weight: 400;&quot;&gt;UUserWidget&amp;gt;&amp;gt;&lt;/span&gt;&lt;/div&gt;&lt;span style=&quot;font-weight: 400;&quot;&gt;UInventoryTooltip&lt;/span&gt;" style="swimlane;fontStyle=1;align=center;verticalAlign=top;childLayout=stackLayout;horizontal=1;startSize=40;horizontalStack=0;resizeParent=1;resizeParentMax=0;resizeLast=0;collapsible=1;marginBottom=0;whiteSpace=wrap;html=1;" parent="WIyWlLk6GJQsqaUBKTNV-1" vertex="1">
          <mxGeometry x="400" y="960" width="350" height="194" as="geometry" />
        </mxCell>
        <mxCell id="23qsIZbxwXjmDLCnPmqu-89" value="+ ItemName : class UTextBlock*" style="text;strokeColor=none;fillColor=none;align=left;verticalAlign=middle;spacingLeft=4;spacingRight=4;overflow=hidden;points=[[0,0.5],[1,0.5]];portConstraint=eastwest;rotatable=0;whiteSpace=wrap;html=1;" parent="23qsIZbxwXjmDLCnPmqu-87" vertex="1">
          <mxGeometry y="40" width="350" height="30" as="geometry" />
        </mxCell>
        <mxCell id="23qsIZbxwXjmDLCnPmqu-91" value="+ ItemValue :&amp;nbsp;class UTextBlock*" style="text;strokeColor=none;fillColor=none;align=left;verticalAlign=middle;spacingLeft=4;spacingRight=4;overflow=hidden;points=[[0,0.5],[1,0.5]];portConstraint=eastwest;rotatable=0;whiteSpace=wrap;html=1;" parent="23qsIZbxwXjmDLCnPmqu-87" vertex="1">
          <mxGeometry y="70" width="350" height="30" as="geometry" />
        </mxCell>
        <mxCell id="23qsIZbxwXjmDLCnPmqu-93" value="+ ItemDescription : class UTextBlock*" style="text;strokeColor=none;fillColor=none;align=left;verticalAlign=middle;spacingLeft=4;spacingRight=4;overflow=hidden;points=[[0,0.5],[1,0.5]];portConstraint=eastwest;rotatable=0;whiteSpace=wrap;html=1;" parent="23qsIZbxwXjmDLCnPmqu-87" vertex="1">
          <mxGeometry y="100" width="350" height="30" as="geometry" />
        </mxCell>
        <mxCell id="23qsIZbxwXjmDLCnPmqu-98" value="" style="line;strokeWidth=1;fillColor=none;align=left;verticalAlign=middle;spacingTop=-1;spacingLeft=3;spacingRight=3;rotatable=0;labelPosition=right;points=[];portConstraint=eastwest;strokeColor=inherit;" parent="23qsIZbxwXjmDLCnPmqu-87" vertex="1">
          <mxGeometry y="130" width="350" height="8" as="geometry" />
        </mxCell>
        <mxCell id="23qsIZbxwXjmDLCnPmqu-99" value="+ PreConstruct(bIsDesignTime : bool) : virtual void&amp;nbsp;" style="text;strokeColor=none;fillColor=none;align=left;verticalAlign=top;spacingLeft=4;spacingRight=4;overflow=hidden;rotatable=0;points=[[0,0.5],[1,0.5]];portConstraint=eastwest;whiteSpace=wrap;html=1;" parent="23qsIZbxwXjmDLCnPmqu-87" vertex="1">
          <mxGeometry y="138" width="350" height="26" as="geometry" />
        </mxCell>
        <mxCell id="23qsIZbxwXjmDLCnPmqu-100" value="+ InitTooltip(InItemData : const struct FItemData&amp;amp;) : void" style="text;strokeColor=none;fillColor=none;align=left;verticalAlign=middle;spacingLeft=4;spacingRight=4;overflow=hidden;points=[[0,0.5],[1,0.5]];portConstraint=eastwest;rotatable=0;whiteSpace=wrap;html=1;" parent="23qsIZbxwXjmDLCnPmqu-87" vertex="1">
          <mxGeometry y="164" width="350" height="30" as="geometry" />
        </mxCell>
        <mxCell id="23qsIZbxwXjmDLCnPmqu-104" value="&lt;div&gt;&lt;span style=&quot;font-weight: 400;&quot;&gt;&amp;lt;&amp;lt;&lt;/span&gt;&lt;span style=&quot;background-color: initial; font-weight: 400;&quot;&gt;UUserWidget&amp;gt;&amp;gt;&lt;/span&gt;&lt;/div&gt;&lt;span style=&quot;font-weight: 400;&quot;&gt;UInventoryQuickSlotWidget&lt;/span&gt;" style="swimlane;fontStyle=1;align=center;verticalAlign=top;childLayout=stackLayout;horizontal=1;startSize=40;horizontalStack=0;resizeParent=1;resizeParentMax=0;resizeLast=0;collapsible=1;marginBottom=0;whiteSpace=wrap;html=1;" parent="WIyWlLk6GJQsqaUBKTNV-1" vertex="1">
          <mxGeometry x="400" y="720" width="350" height="224" as="geometry" />
        </mxCell>
        <mxCell id="23qsIZbxwXjmDLCnPmqu-105" value="+ QuickSlotComsuable : class UOverlay*" style="text;strokeColor=none;fillColor=none;align=left;verticalAlign=middle;spacingLeft=4;spacingRight=4;overflow=hidden;points=[[0,0.5],[1,0.5]];portConstraint=eastwest;rotatable=0;whiteSpace=wrap;html=1;" parent="23qsIZbxwXjmDLCnPmqu-104" vertex="1">
          <mxGeometry y="40" width="350" height="30" as="geometry" />
        </mxCell>
        <mxCell id="23qsIZbxwXjmDLCnPmqu-106" value="+ QuickSlotImage : class UImage*" style="text;strokeColor=none;fillColor=none;align=left;verticalAlign=middle;spacingLeft=4;spacingRight=4;overflow=hidden;points=[[0,0.5],[1,0.5]];portConstraint=eastwest;rotatable=0;whiteSpace=wrap;html=1;" parent="23qsIZbxwXjmDLCnPmqu-104" vertex="1">
          <mxGeometry y="70" width="350" height="30" as="geometry" />
        </mxCell>
        <mxCell id="23qsIZbxwXjmDLCnPmqu-107" value="+ QuickSlotAmount : class UTextBlock*" style="text;strokeColor=none;fillColor=none;align=left;verticalAlign=middle;spacingLeft=4;spacingRight=4;overflow=hidden;points=[[0,0.5],[1,0.5]];portConstraint=eastwest;rotatable=0;whiteSpace=wrap;html=1;" parent="23qsIZbxwXjmDLCnPmqu-104" vertex="1">
          <mxGeometry y="100" width="350" height="30" as="geometry" />
        </mxCell>
        <mxCell id="23qsIZbxwXjmDLCnPmqu-111" value="+ QuickSlotItem : class AItemBase*" style="text;strokeColor=none;fillColor=none;align=left;verticalAlign=middle;spacingLeft=4;spacingRight=4;overflow=hidden;points=[[0,0.5],[1,0.5]];portConstraint=eastwest;rotatable=0;whiteSpace=wrap;html=1;" parent="23qsIZbxwXjmDLCnPmqu-104" vertex="1">
          <mxGeometry y="130" width="350" height="30" as="geometry" />
        </mxCell>
        <mxCell id="23qsIZbxwXjmDLCnPmqu-108" value="" style="line;strokeWidth=1;fillColor=none;align=left;verticalAlign=middle;spacingTop=-1;spacingLeft=3;spacingRight=3;rotatable=0;labelPosition=right;points=[];portConstraint=eastwest;strokeColor=inherit;" parent="23qsIZbxwXjmDLCnPmqu-104" vertex="1">
          <mxGeometry y="160" width="350" height="8" as="geometry" />
        </mxCell>
        <mxCell id="23qsIZbxwXjmDLCnPmqu-109" value="+ NativeConstruct() override : virtual void" style="text;strokeColor=none;fillColor=none;align=left;verticalAlign=top;spacingLeft=4;spacingRight=4;overflow=hidden;rotatable=0;points=[[0,0.5],[1,0.5]];portConstraint=eastwest;whiteSpace=wrap;html=1;" parent="23qsIZbxwXjmDLCnPmqu-104" vertex="1">
          <mxGeometry y="168" width="350" height="26" as="geometry" />
        </mxCell>
        <mxCell id="23qsIZbxwXjmDLCnPmqu-110" value="+ SetQuickSlotConsumable(NewQuickSlotItemIcon : class UTexture2D*, InventoryItemAmount : int32) : void" style="text;strokeColor=none;fillColor=none;align=left;verticalAlign=middle;spacingLeft=4;spacingRight=4;overflow=hidden;points=[[0,0.5],[1,0.5]];portConstraint=eastwest;rotatable=0;whiteSpace=wrap;html=1;" parent="23qsIZbxwXjmDLCnPmqu-104" vertex="1">
          <mxGeometry y="194" width="350" height="30" as="geometry" />
        </mxCell>
        <mxCell id="G0ofT134D1DOn4r2Eg24-9" value="" style="endArrow=diamondThin;endFill=1;endSize=24;html=1;rounded=0;" edge="1" parent="WIyWlLk6GJQsqaUBKTNV-1" source="zkfFHV4jXpPFQw0GAbJ--0" target="zkfFHV4jXpPFQw0GAbJ--17">
          <mxGeometry width="160" relative="1" as="geometry">
            <mxPoint x="780" y="760" as="sourcePoint" />
            <mxPoint x="940" y="760" as="targetPoint" />
          </mxGeometry>
        </mxCell>
        <mxCell id="G0ofT134D1DOn4r2Eg24-11" value="" style="endArrow=diamondThin;endFill=1;endSize=24;html=1;rounded=0;" edge="1" parent="WIyWlLk6GJQsqaUBKTNV-1" source="zkfFHV4jXpPFQw0GAbJ--17" target="23qsIZbxwXjmDLCnPmqu-26">
          <mxGeometry width="160" relative="1" as="geometry">
            <mxPoint x="340" y="610" as="sourcePoint" />
            <mxPoint x="410" y="370" as="targetPoint" />
          </mxGeometry>
        </mxCell>
        <mxCell id="G0ofT134D1DOn4r2Eg24-12" value="" style="endArrow=diamondThin;endFill=1;endSize=24;html=1;rounded=0;" edge="1" parent="WIyWlLk6GJQsqaUBKTNV-1" source="23qsIZbxwXjmDLCnPmqu-26" target="23qsIZbxwXjmDLCnPmqu-49">
          <mxGeometry width="160" relative="1" as="geometry">
            <mxPoint x="595" y="328" as="sourcePoint" />
            <mxPoint x="885" y="234" as="targetPoint" />
          </mxGeometry>
        </mxCell>
        <mxCell id="G0ofT134D1DOn4r2Eg24-13" value="" style="endArrow=diamondThin;endFill=1;endSize=24;html=1;rounded=0;" edge="1" parent="WIyWlLk6GJQsqaUBKTNV-1" source="23qsIZbxwXjmDLCnPmqu-49" target="23qsIZbxwXjmDLCnPmqu-68">
          <mxGeometry width="160" relative="1" as="geometry">
            <mxPoint x="1235" y="226" as="sourcePoint" />
            <mxPoint x="1314" y="248" as="targetPoint" />
          </mxGeometry>
        </mxCell>
        <mxCell id="G0ofT134D1DOn4r2Eg24-14" value="" style="endArrow=diamondThin;endFill=1;endSize=24;html=1;rounded=0;" edge="1" parent="WIyWlLk6GJQsqaUBKTNV-1" source="23qsIZbxwXjmDLCnPmqu-87" target="23qsIZbxwXjmDLCnPmqu-68">
          <mxGeometry width="160" relative="1" as="geometry">
            <mxPoint x="995" y="940" as="sourcePoint" />
            <mxPoint x="1155" y="940" as="targetPoint" />
          </mxGeometry>
        </mxCell>
        <mxCell id="G0ofT134D1DOn4r2Eg24-15" value="" style="endArrow=diamondThin;endFill=1;endSize=24;html=1;rounded=0;exitX=0.12;exitY=0.004;exitDx=0;exitDy=0;exitPerimeter=0;" edge="1" parent="WIyWlLk6GJQsqaUBKTNV-1" source="23qsIZbxwXjmDLCnPmqu-104" target="23qsIZbxwXjmDLCnPmqu-68">
          <mxGeometry width="160" relative="1" as="geometry">
            <mxPoint x="1305" y="730" as="sourcePoint" />
            <mxPoint x="1465" y="730" as="targetPoint" />
          </mxGeometry>
        </mxCell>
        <mxCell id="G0ofT134D1DOn4r2Eg24-18" value="&lt;&lt;UGameInstance&gt;&gt;&#xa;UDataTableGameInstance" style="swimlane;fontStyle=2;align=center;verticalAlign=top;childLayout=stackLayout;horizontal=1;startSize=40;horizontalStack=0;resizeParent=1;resizeLast=0;collapsible=1;marginBottom=0;rounded=0;shadow=0;strokeWidth=1;" vertex="1" parent="WIyWlLk6GJQsqaUBKTNV-1">
          <mxGeometry x="1680" y="338" width="280" height="710" as="geometry">
            <mxRectangle x="230" y="140" width="160" height="26" as="alternateBounds" />
          </mxGeometry>
        </mxCell>
        <mxCell id="G0ofT134D1DOn4r2Eg24-19" value="- ItemTable : class UDataTable*&amp;nbsp;" style="text;strokeColor=none;fillColor=none;align=left;verticalAlign=middle;spacingLeft=4;spacingRight=4;overflow=hidden;points=[[0,0.5],[1,0.5]];portConstraint=eastwest;rotatable=0;whiteSpace=wrap;html=1;" vertex="1" parent="G0ofT134D1DOn4r2Eg24-18">
          <mxGeometry y="40" width="280" height="30" as="geometry" />
        </mxCell>
        <mxCell id="G0ofT134D1DOn4r2Eg24-20" value="- DropItemTable : class UDataTable*" style="text;strokeColor=none;fillColor=none;align=left;verticalAlign=middle;spacingLeft=4;spacingRight=4;overflow=hidden;points=[[0,0.5],[1,0.5]];portConstraint=eastwest;rotatable=0;whiteSpace=wrap;html=1;" vertex="1" parent="G0ofT134D1DOn4r2Eg24-18">
          <mxGeometry y="70" width="280" height="30" as="geometry" />
        </mxCell>
        <mxCell id="G0ofT134D1DOn4r2Eg24-21" value="- InventoryItemTable : class UDataTable*" style="text;strokeColor=none;fillColor=none;align=left;verticalAlign=middle;spacingLeft=4;spacingRight=4;overflow=hidden;points=[[0,0.5],[1,0.5]];portConstraint=eastwest;rotatable=0;whiteSpace=wrap;html=1;" vertex="1" parent="G0ofT134D1DOn4r2Eg24-18">
          <mxGeometry y="100" width="280" height="30" as="geometry" />
        </mxCell>
        <mxCell id="G0ofT134D1DOn4r2Eg24-22" value="- MonsterDataTable : class UDataTable*" style="text;strokeColor=none;fillColor=none;align=left;verticalAlign=middle;spacingLeft=4;spacingRight=4;overflow=hidden;points=[[0,0.5],[1,0.5]];portConstraint=eastwest;rotatable=0;whiteSpace=wrap;html=1;" vertex="1" parent="G0ofT134D1DOn4r2Eg24-18">
          <mxGeometry y="130" width="280" height="30" as="geometry" />
        </mxCell>
        <mxCell id="G0ofT134D1DOn4r2Eg24-24" value="- CharacterDataTable : class UDataTable*" style="text;strokeColor=none;fillColor=none;align=left;verticalAlign=middle;spacingLeft=4;spacingRight=4;overflow=hidden;points=[[0,0.5],[1,0.5]];portConstraint=eastwest;rotatable=0;whiteSpace=wrap;html=1;" vertex="1" parent="G0ofT134D1DOn4r2Eg24-18">
          <mxGeometry y="160" width="280" height="30" as="geometry" />
        </mxCell>
        <mxCell id="G0ofT134D1DOn4r2Eg24-23" value="- ItemDropCache : TMap&amp;lt;int32, struct FDropRate*&amp;gt;" style="text;strokeColor=none;fillColor=none;align=left;verticalAlign=middle;spacingLeft=4;spacingRight=4;overflow=hidden;points=[[0,0.5],[1,0.5]];portConstraint=eastwest;rotatable=0;whiteSpace=wrap;html=1;" vertex="1" parent="G0ofT134D1DOn4r2Eg24-18">
          <mxGeometry y="190" width="280" height="30" as="geometry" />
        </mxCell>
        <mxCell id="G0ofT134D1DOn4r2Eg24-25" value="- ItemCache : TMap&amp;lt;int32, struct FItemData*&amp;gt;" style="text;strokeColor=none;fillColor=none;align=left;verticalAlign=middle;spacingLeft=4;spacingRight=4;overflow=hidden;points=[[0,0.5],[1,0.5]];portConstraint=eastwest;rotatable=0;whiteSpace=wrap;html=1;" vertex="1" parent="G0ofT134D1DOn4r2Eg24-18">
          <mxGeometry y="220" width="280" height="30" as="geometry" />
        </mxCell>
        <mxCell id="G0ofT134D1DOn4r2Eg24-26" value="- InventoryItemDataCache : TMap&amp;lt;int32, struct FInventoryItemData*&amp;gt;" style="text;strokeColor=none;fillColor=none;align=left;verticalAlign=middle;spacingLeft=4;spacingRight=4;overflow=hidden;points=[[0,0.5],[1,0.5]];portConstraint=eastwest;rotatable=0;whiteSpace=wrap;html=1;" vertex="1" parent="G0ofT134D1DOn4r2Eg24-18">
          <mxGeometry y="250" width="280" height="30" as="geometry" />
        </mxCell>
        <mxCell id="G0ofT134D1DOn4r2Eg24-35" value="- CameraShake : TSubclassOf&amp;lt;class UCameraShakeBase&amp;gt;" style="text;strokeColor=none;fillColor=none;align=left;verticalAlign=middle;spacingLeft=4;spacingRight=4;overflow=hidden;points=[[0,0.5],[1,0.5]];portConstraint=eastwest;rotatable=0;whiteSpace=wrap;html=1;" vertex="1" parent="G0ofT134D1DOn4r2Eg24-18">
          <mxGeometry y="280" width="280" height="30" as="geometry" />
        </mxCell>
        <mxCell id="G0ofT134D1DOn4r2Eg24-36" value="- BossCameraShake : TSubclassOf&amp;lt;class UCameraShakeBase&amp;gt;" style="text;strokeColor=none;fillColor=none;align=left;verticalAlign=middle;spacingLeft=4;spacingRight=4;overflow=hidden;points=[[0,0.5],[1,0.5]];portConstraint=eastwest;rotatable=0;whiteSpace=wrap;html=1;" vertex="1" parent="G0ofT134D1DOn4r2Eg24-18">
          <mxGeometry y="310" width="280" height="30" as="geometry" />
        </mxCell>
        <mxCell id="G0ofT134D1DOn4r2Eg24-27" value="" style="line;html=1;strokeWidth=1;align=left;verticalAlign=middle;spacingTop=-1;spacingLeft=3;spacingRight=3;rotatable=0;labelPosition=right;points=[];portConstraint=eastwest;" vertex="1" parent="G0ofT134D1DOn4r2Eg24-18">
          <mxGeometry y="340" width="280" height="8" as="geometry" />
        </mxCell>
        <mxCell id="G0ofT134D1DOn4r2Eg24-28" value="+ GetDropRate(ItemID : int32) : struct FDropRate*" style="text;strokeColor=none;fillColor=none;align=left;verticalAlign=middle;spacingLeft=4;spacingRight=4;overflow=hidden;points=[[0,0.5],[1,0.5]];portConstraint=eastwest;rotatable=0;whiteSpace=wrap;html=1;" vertex="1" parent="G0ofT134D1DOn4r2Eg24-18">
          <mxGeometry y="348" width="280" height="30" as="geometry" />
        </mxCell>
        <mxCell id="G0ofT134D1DOn4r2Eg24-29" value="+ GetItemTable() : class UDataTable*" style="text;align=left;verticalAlign=top;spacingLeft=4;spacingRight=4;overflow=hidden;rotatable=0;points=[[0,0.5],[1,0.5]];portConstraint=eastwest;" vertex="1" parent="G0ofT134D1DOn4r2Eg24-18">
          <mxGeometry y="378" width="280" height="26" as="geometry" />
        </mxCell>
        <mxCell id="G0ofT134D1DOn4r2Eg24-30" value="+ GetDropItemTable() : class UDataTable*" style="text;strokeColor=none;fillColor=none;align=left;verticalAlign=middle;spacingLeft=4;spacingRight=4;overflow=hidden;points=[[0,0.5],[1,0.5]];portConstraint=eastwest;rotatable=0;whiteSpace=wrap;html=1;" vertex="1" parent="G0ofT134D1DOn4r2Eg24-18">
          <mxGeometry y="404" width="280" height="30" as="geometry" />
        </mxCell>
        <mxCell id="G0ofT134D1DOn4r2Eg24-31" value="+ GetMonsterDataTable() : class UDataTable*" style="text;strokeColor=none;fillColor=none;align=left;verticalAlign=middle;spacingLeft=4;spacingRight=4;overflow=hidden;points=[[0,0.5],[1,0.5]];portConstraint=eastwest;rotatable=0;whiteSpace=wrap;html=1;" vertex="1" parent="G0ofT134D1DOn4r2Eg24-18">
          <mxGeometry y="434" width="280" height="36" as="geometry" />
        </mxCell>
        <mxCell id="G0ofT134D1DOn4r2Eg24-32" value="+ GetCharacterDataTable() : class UDataTable*" style="text;strokeColor=none;fillColor=none;align=left;verticalAlign=middle;spacingLeft=4;spacingRight=4;overflow=hidden;points=[[0,0.5],[1,0.5]];portConstraint=eastwest;rotatable=0;whiteSpace=wrap;html=1;" vertex="1" parent="G0ofT134D1DOn4r2Eg24-18">
          <mxGeometry y="470" width="280" height="30" as="geometry" />
        </mxCell>
        <mxCell id="G0ofT134D1DOn4r2Eg24-33" value="+ GetInventoryItemTable() : class UDataTable*" style="text;strokeColor=none;fillColor=none;align=left;verticalAlign=middle;spacingLeft=4;spacingRight=4;overflow=hidden;points=[[0,0.5],[1,0.5]];portConstraint=eastwest;rotatable=0;whiteSpace=wrap;html=1;" vertex="1" parent="G0ofT134D1DOn4r2Eg24-18">
          <mxGeometry y="500" width="280" height="30" as="geometry" />
        </mxCell>
        <mxCell id="G0ofT134D1DOn4r2Eg24-34" value="+ GetCameraShake() : TSubclassOf&amp;lt;class UCameraShakeBase&amp;gt;" style="text;strokeColor=none;fillColor=none;align=left;verticalAlign=middle;spacingLeft=4;spacingRight=4;overflow=hidden;points=[[0,0.5],[1,0.5]];portConstraint=eastwest;rotatable=0;whiteSpace=wrap;html=1;" vertex="1" parent="G0ofT134D1DOn4r2Eg24-18">
          <mxGeometry y="530" width="280" height="40" as="geometry" />
        </mxCell>
        <mxCell id="G0ofT134D1DOn4r2Eg24-37" value="+ GetBossCameraShake() : TSubclassOf&amp;lt;class UCameraShakeBase&amp;gt;" style="text;strokeColor=none;fillColor=none;align=left;verticalAlign=middle;spacingLeft=4;spacingRight=4;overflow=hidden;points=[[0,0.5],[1,0.5]];portConstraint=eastwest;rotatable=0;whiteSpace=wrap;html=1;" vertex="1" parent="G0ofT134D1DOn4r2Eg24-18">
          <mxGeometry y="570" width="280" height="30" as="geometry" />
        </mxCell>
        <mxCell id="G0ofT134D1DOn4r2Eg24-38" value="+ const&amp;nbsp;GetItemDropCache() const : TMap&amp;lt;int32, struct FDropRate*&amp;gt;&amp;amp;" style="text;strokeColor=none;fillColor=none;align=left;verticalAlign=middle;spacingLeft=4;spacingRight=4;overflow=hidden;points=[[0,0.5],[1,0.5]];portConstraint=eastwest;rotatable=0;whiteSpace=wrap;html=1;" vertex="1" parent="G0ofT134D1DOn4r2Eg24-18">
          <mxGeometry y="600" width="280" height="30" as="geometry" />
        </mxCell>
        <mxCell id="G0ofT134D1DOn4r2Eg24-39" value="+ const&amp;nbsp;GetItemCache() const : TMap&amp;lt;int32, struct FItemData*&amp;gt;&amp;amp;" style="text;strokeColor=none;fillColor=none;align=left;verticalAlign=middle;spacingLeft=4;spacingRight=4;overflow=hidden;points=[[0,0.5],[1,0.5]];portConstraint=eastwest;rotatable=0;whiteSpace=wrap;html=1;" vertex="1" parent="G0ofT134D1DOn4r2Eg24-18">
          <mxGeometry y="630" width="280" height="30" as="geometry" />
        </mxCell>
        <mxCell id="G0ofT134D1DOn4r2Eg24-40" value="+ const&amp;nbsp;GetInventoryItemDataCache() const : TMap&amp;lt;int32, struct FInventoryItemData*&amp;gt;&amp;amp;" style="text;strokeColor=none;fillColor=none;align=left;verticalAlign=middle;spacingLeft=4;spacingRight=4;overflow=hidden;points=[[0,0.5],[1,0.5]];portConstraint=eastwest;rotatable=0;whiteSpace=wrap;html=1;" vertex="1" parent="G0ofT134D1DOn4r2Eg24-18">
          <mxGeometry y="660" width="280" height="50" as="geometry" />
        </mxCell>
        <mxCell id="G0ofT134D1DOn4r2Eg24-46" value="&lt;span style=&quot;text-align: center;&quot;&gt;&amp;lt;&amp;lt;FTableRowBase&amp;gt;&amp;gt;&lt;/span&gt;&lt;div style=&quot;text-align: center; font-weight: 700;&quot;&gt;&lt;span style=&quot;font-weight: normal;&quot;&gt;FInventoryItemData&lt;/span&gt;&lt;/div&gt;" style="dashed=1;rounded=1;absoluteArcSize=1;arcSize=20;html=1;verticalAlign=top;align=left;spacingTop=5;spacingLeft=10;whiteSpace=wrap;" vertex="1" parent="WIyWlLk6GJQsqaUBKTNV-1">
          <mxGeometry x="1680" y="40" width="200" height="175" as="geometry" />
        </mxCell>
        <mxCell id="G0ofT134D1DOn4r2Eg24-47" value="+ ItemUID : int32" style="text;strokeColor=none;fillColor=none;align=left;verticalAlign=middle;spacingLeft=4;spacingRight=4;overflow=hidden;points=[[0,0.5],[1,0.5]];portConstraint=eastwest;rotatable=0;whiteSpace=wrap;html=1;" vertex="1" parent="WIyWlLk6GJQsqaUBKTNV-1">
          <mxGeometry x="1690" y="82.5" width="140" height="30" as="geometry" />
        </mxCell>
        <mxCell id="G0ofT134D1DOn4r2Eg24-48" value="+ ItemTableID : int32" style="text;strokeColor=none;fillColor=none;align=left;verticalAlign=middle;spacingLeft=4;spacingRight=4;overflow=hidden;points=[[0,0.5],[1,0.5]];portConstraint=eastwest;rotatable=0;whiteSpace=wrap;html=1;" vertex="1" parent="WIyWlLk6GJQsqaUBKTNV-1">
          <mxGeometry x="1690" y="112.5" width="140" height="30" as="geometry" />
        </mxCell>
        <mxCell id="G0ofT134D1DOn4r2Eg24-49" value="+ ItemAmount : int32" style="text;strokeColor=none;fillColor=none;align=left;verticalAlign=middle;spacingLeft=4;spacingRight=4;overflow=hidden;points=[[0,0.5],[1,0.5]];portConstraint=eastwest;rotatable=0;whiteSpace=wrap;html=1;" vertex="1" parent="WIyWlLk6GJQsqaUBKTNV-1">
          <mxGeometry x="1690" y="142.5" width="140" height="30" as="geometry" />
        </mxCell>
        <mxCell id="G0ofT134D1DOn4r2Eg24-50" value="+ bCounterble : bool" style="text;strokeColor=none;fillColor=none;align=left;verticalAlign=middle;spacingLeft=4;spacingRight=4;overflow=hidden;points=[[0,0.5],[1,0.5]];portConstraint=eastwest;rotatable=0;whiteSpace=wrap;html=1;" vertex="1" parent="WIyWlLk6GJQsqaUBKTNV-1">
          <mxGeometry x="1690" y="172.5" width="140" height="30" as="geometry" />
        </mxCell>
        <mxCell id="G0ofT134D1DOn4r2Eg24-51" value="" style="endArrow=diamondThin;endFill=1;endSize=24;html=1;rounded=0;" edge="1" parent="WIyWlLk6GJQsqaUBKTNV-1" source="G0ofT134D1DOn4r2Eg24-18" target="23qsIZbxwXjmDLCnPmqu-86">
          <mxGeometry width="160" relative="1" as="geometry">
            <mxPoint x="1300" y="620" as="sourcePoint" />
            <mxPoint x="1460" y="620" as="targetPoint" />
          </mxGeometry>
        </mxCell>
        <mxCell id="G0ofT134D1DOn4r2Eg24-52" value="" style="endArrow=diamondThin;endFill=1;endSize=24;html=1;rounded=0;" edge="1" parent="WIyWlLk6GJQsqaUBKTNV-1" source="G0ofT134D1DOn4r2Eg24-18" target="23qsIZbxwXjmDLCnPmqu-53">
          <mxGeometry width="160" relative="1" as="geometry">
            <mxPoint x="1850" y="250" as="sourcePoint" />
            <mxPoint x="2010" y="250" as="targetPoint" />
          </mxGeometry>
        </mxCell>
      </root>
    </mxGraphModel>
  </diagram>
</mxfile>
